<?xml version="1.0" encoding="UTF-8" standalone="no"?>
<!-- Created with Inkscape (http://www.inkscape.org/) -->

<svg
   xmlns:dc="http://purl.org/dc/elements/1.1/"
   xmlns:cc="http://creativecommons.org/ns#"
   xmlns:rdf="http://www.w3.org/1999/02/22-rdf-syntax-ns#"
   xmlns:svg="http://www.w3.org/2000/svg"
   xmlns="http://www.w3.org/2000/svg"
   xmlns:sodipodi="http://sodipodi.sourceforge.net/DTD/sodipodi-0.dtd"
   xmlns:inkscape="http://www.inkscape.org/namespaces/inkscape"
   width="200"
   height="200"
   viewBox="0 0 52.916666 52.916668"
   version="1.1"
   id="svg6494"
   inkscape:version="0.92.1 r15371"
   sodipodi:docname="about.svg"
   inkscape:export-filename="C:\Users\Lenovo\Stuha\hobutrol\src\images\about.png"
   inkscape:export-xdpi="52.799999"
   inkscape:export-ydpi="52.799999">
  <defs
     id="defs6488" />
  <sodipodi:namedview
     id="base"
     pagecolor="#ffffff"
     bordercolor="#666666"
     borderopacity="1.0"
     inkscape:pageopacity="0.0"
     inkscape:pageshadow="2"
     inkscape:zoom="1"
     inkscape:cx="167.57441"
     inkscape:cy="114.10034"
     inkscape:document-units="px"
     inkscape:current-layer="layer1"
     showgrid="false"
     units="px"
     inkscape:window-width="1600"
     inkscape:window-height="837"
     inkscape:window-x="-8"
     inkscape:window-y="-8"
     inkscape:window-maximized="1">
    <inkscape:grid
       type="xygrid"
       id="grid7198" />
  </sodipodi:namedview>
  <metadata
     id="metadata6491">
    <rdf:RDF>
      <cc:Work
         rdf:about="">
        <dc:format>image/svg+xml</dc:format>
        <dc:type
           rdf:resource="http://purl.org/dc/dcmitype/StillImage" />
        <dc:title></dc:title>
      </cc:Work>
    </rdf:RDF>
  </metadata>
  <g
     inkscape:label="Layer 1"
     inkscape:groupmode="layer"
     id="layer1"
     transform="translate(0,-244.08332)">
    <text
       xml:space="preserve"
       style="font-style:normal;font-variant:normal;font-weight:bold;font-stretch:normal;font-size:4.21314812px;line-height:1.25;font-family:Comfortaa;-inkscape-font-specification:'Comfortaa, Bold';font-variant-ligatures:normal;font-variant-caps:normal;font-variant-numeric:normal;font-feature-settings:normal;text-align:center;letter-spacing:0px;word-spacing:0px;writing-mode:lr-tb;text-anchor:middle;fill:#33332f;fill-opacity:1;stroke:#33332f;stroke-width:0.13229167;stroke-miterlimit:4;stroke-dasharray:none;stroke-opacity:1"
       x="77.480568"
       y="304.61688"
       id="text6440-6"
       transform="scale(1.0003819,0.99961825)"><tspan
         sodipodi:role="line"
         x="77.480568"
         y="304.61688"
         style="font-style:normal;font-variant:normal;font-weight:bold;font-stretch:normal;font-size:4.21314812px;font-family:Comfortaa;-inkscape-font-specification:'Comfortaa, Bold';font-variant-ligatures:normal;font-variant-caps:normal;font-variant-numeric:normal;font-feature-settings:normal;text-align:center;writing-mode:lr-tb;text-anchor:middle;fill:#33332f;fill-opacity:1;stroke:#33332f;stroke-width:0.13229167;stroke-miterlimit:4;stroke-dasharray:none;stroke-opacity:1"
         id="tspan6442-0">Ú<tspan
   style="font-style:normal;font-variant:normal;font-weight:bold;font-stretch:normal;font-size:2.82222223px;font-family:Comfortaa;-inkscape-font-specification:'Comfortaa, Bold';font-variant-ligatures:normal;font-variant-caps:normal;font-variant-numeric:normal;font-feature-settings:normal;text-align:center;writing-mode:lr-tb;text-anchor:middle;fill:#33332f;fill-opacity:1;stroke:#33332f;stroke-width:0.13229167;stroke-miterlimit:4;stroke-dasharray:none;stroke-opacity:1"
   id="tspan7069-0" />Č<tspan
   style="font-style:normal;font-variant:normal;font-weight:bold;font-stretch:normal;font-size:2.82222223px;font-family:Comfortaa;-inkscape-font-specification:'Comfortaa, Bold';font-variant-ligatures:normal;font-variant-caps:normal;font-variant-numeric:normal;font-feature-settings:normal;text-align:center;writing-mode:lr-tb;text-anchor:middle;fill:#33332f;fill-opacity:1;stroke:#33332f;stroke-width:0.13229167;stroke-miterlimit:4;stroke-dasharray:none;stroke-opacity:1"
   id="tspan7067-3" />E<tspan
   style="font-style:normal;font-variant:normal;font-weight:bold;font-stretch:normal;font-size:2.82222223px;font-family:Comfortaa;-inkscape-font-specification:'Comfortaa, Bold';font-variant-ligatures:normal;font-variant-caps:normal;font-variant-numeric:normal;font-feature-settings:normal;text-align:center;writing-mode:lr-tb;text-anchor:middle;fill:#33332f;fill-opacity:1;stroke:#33332f;stroke-width:0.13229167;stroke-miterlimit:4;stroke-dasharray:none;stroke-opacity:1"
   id="tspan7065-4" />L</tspan></text>
    <text
       xml:space="preserve"
       style="font-style:normal;font-variant:normal;font-weight:bold;font-stretch:normal;font-size:4.21314812px;line-height:1.25;font-family:Comfortaa;-inkscape-font-specification:'Comfortaa, Bold';font-variant-ligatures:normal;font-variant-caps:normal;font-variant-numeric:normal;font-feature-settings:normal;text-align:center;letter-spacing:0px;word-spacing:0px;writing-mode:lr-tb;text-anchor:middle;fill:#33332f;fill-opacity:1;stroke:#33332f;stroke-width:0.13229166;stroke-miterlimit:4;stroke-dasharray:none;stroke-opacity:1"
       x="103.6027"
       y="304.56903"
       id="text6440-9-6"
       transform="scale(1.0003819,0.99961824)"><tspan
         sodipodi:role="line"
         x="103.6027"
         y="304.56903"
         style="font-style:normal;font-variant:normal;font-weight:bold;font-stretch:normal;font-size:4.21314812px;font-family:Comfortaa;-inkscape-font-specification:'Comfortaa, Bold';font-variant-ligatures:normal;font-variant-caps:normal;font-variant-numeric:normal;font-feature-settings:normal;text-align:center;writing-mode:lr-tb;text-anchor:middle;fill:#33332f;fill-opacity:1;stroke:#33332f;stroke-width:0.13229166;stroke-miterlimit:4;stroke-dasharray:none;stroke-opacity:1"
         id="tspan6442-6-6">S<tspan
   style="font-style:normal;font-variant:normal;font-weight:bold;font-stretch:normal;font-size:2.82222199px;font-family:Comfortaa;-inkscape-font-specification:'Comfortaa, Bold';font-variant-ligatures:normal;font-variant-caps:normal;font-variant-numeric:normal;font-feature-settings:normal;text-align:center;writing-mode:lr-tb;text-anchor:middle;fill:#33332f;fill-opacity:1;stroke:#33332f;stroke-width:0.13229166;stroke-miterlimit:4;stroke-dasharray:none;stroke-opacity:1"
   id="tspan7063-5" />P<tspan
   style="font-style:normal;font-variant:normal;font-weight:bold;font-stretch:normal;font-size:2.82222199px;font-family:Comfortaa;-inkscape-font-specification:'Comfortaa, Bold';font-variant-ligatures:normal;font-variant-caps:normal;font-variant-numeric:normal;font-feature-settings:normal;text-align:center;writing-mode:lr-tb;text-anchor:middle;fill:#33332f;fill-opacity:1;stroke:#33332f;stroke-width:0.13229166;stroke-miterlimit:4;stroke-dasharray:none;stroke-opacity:1"
   id="tspan7061-1" />O<tspan
   style="font-style:normal;font-variant:normal;font-weight:bold;font-stretch:normal;font-size:2.82222199px;font-family:Comfortaa;-inkscape-font-specification:'Comfortaa, Bold';font-variant-ligatures:normal;font-variant-caps:normal;font-variant-numeric:normal;font-feature-settings:normal;text-align:center;writing-mode:lr-tb;text-anchor:middle;fill:#33332f;fill-opacity:1;stroke:#33332f;stroke-width:0.13229166;stroke-miterlimit:4;stroke-dasharray:none;stroke-opacity:1"
   id="tspan7059-2" />L<tspan
   style="font-style:normal;font-variant:normal;font-weight:bold;font-stretch:normal;font-size:2.82222199px;font-family:Comfortaa;-inkscape-font-specification:'Comfortaa, Bold';font-variant-ligatures:normal;font-variant-caps:normal;font-variant-numeric:normal;font-feature-settings:normal;text-align:center;writing-mode:lr-tb;text-anchor:middle;fill:#33332f;fill-opacity:1;stroke:#33332f;stroke-width:0.13229166;stroke-miterlimit:4;stroke-dasharray:none;stroke-opacity:1"
   id="tspan7057" />K<tspan
   style="font-style:normal;font-variant:normal;font-weight:bold;font-stretch:normal;font-size:2.82222199px;font-family:Comfortaa;-inkscape-font-specification:'Comfortaa, Bold';font-variant-ligatures:normal;font-variant-caps:normal;font-variant-numeric:normal;font-feature-settings:normal;text-align:center;writing-mode:lr-tb;text-anchor:middle;fill:#33332f;fill-opacity:1;stroke:#33332f;stroke-width:0.13229166;stroke-miterlimit:4;stroke-dasharray:none;stroke-opacity:1"
   id="tspan7055" />U</tspan></text>
    <circle
       style="opacity:0.98999999;fill:none;fill-opacity:1;stroke:#33332f;stroke-width:0.66145831;stroke-linecap:round;stroke-linejoin:round;stroke-miterlimit:4;stroke-dasharray:none;stroke-dashoffset:0;stroke-opacity:1"
       id="path7202"
       cx="26.458332"
       cy="270.54166"
       r="10.583333" />
    <g
       aria-label="S  P  O  L  K  U"
       style="font-style:normal;font-variant:normal;font-weight:bold;font-stretch:normal;font-size:4.21314812px;line-height:1.25;font-family:Comfortaa;-inkscape-font-specification:'Comfortaa, Bold';font-variant-ligatures:normal;font-variant-caps:normal;font-variant-numeric:normal;font-feature-settings:normal;text-align:center;letter-spacing:0px;word-spacing:0px;writing-mode:lr-tb;text-anchor:middle;fill:#33332f;fill-opacity:1;stroke:#33332f;stroke-width:0.13229166;stroke-miterlimit:4;stroke-dasharray:none;stroke-opacity:1"
       id="text6440-9-6-3">
      <path
         d="m 17.165287,270.96946 q -0.01781,-0.40829 0.152709,-0.7531 0.170699,-0.3406 0.464041,-0.47991 0.04959,-0.0233 0.08327,-0.0247 0.06314,-0.003 0.111457,0.0415 0.05253,0.0441 0.07285,0.12334 0.0048,0.0124 0.006,0.0419 0.0029,0.0673 -0.03658,0.12811 -0.03513,0.0648 -0.10119,0.0972 -0.160852,0.0829 -0.264769,0.31096 -0.103917,0.22804 -0.09217,0.49743 0.01377,0.31569 0.166426,0.52832 0.156867,0.21245 0.409415,0.20144 0.239922,-0.0105 0.40021,-0.20302 0.164497,-0.19272 0.185857,-0.5732 0.02775,-0.52414 0.26726,-0.834 0.243723,-0.31005 0.626756,-0.32676 0.269385,-0.0117 0.469615,0.13134 0.204622,0.14711 0.317208,0.40788 0.116978,0.2648 0.131481,0.59732 0.01579,0.36198 -0.120701,0.61675 -0.136488,0.25476 -0.402556,0.43927 -0.07777,0.054 -0.149326,0.0571 -0.0926,0.004 -0.155201,-0.0776 -0.03148,-0.045 -0.03424,-0.10816 -0.0028,-0.0631 0.02432,-0.11914 0.03129,-0.0562 0.08472,-0.088 0.184454,-0.12191 0.273738,-0.29871 0.09368,-0.17277 0.08229,-0.43374 -0.01395,-0.31989 -0.148855,-0.51222 -0.130694,-0.1925 -0.366406,-0.18222 -0.218876,0.01 -0.358485,0.19275 -0.13961,0.18321 -0.166084,0.63982 -0.02848,0.5073 -0.273121,0.7963 -0.240432,0.28882 -0.657138,0.307 -0.303058,0.0132 -0.529093,-0.1414 -0.221827,-0.15479 -0.343197,-0.42361 -0.116978,-0.2648 -0.130564,-0.57627 z"
         style="font-style:normal;font-variant:normal;font-weight:bold;font-stretch:normal;font-size:4.21314812px;font-family:Comfortaa;-inkscape-font-specification:'Comfortaa, Bold';font-variant-ligatures:normal;font-variant-caps:normal;font-variant-numeric:normal;font-feature-settings:normal;text-align:center;writing-mode:lr-tb;text-anchor:middle;fill:#33332f;fill-opacity:1;stroke:#33332f;stroke-width:0.13229166;stroke-miterlimit:4;stroke-dasharray:none;stroke-opacity:1"
         id="path7471" />
      <path
         d="m 18.47582,275.2859 q -0.05305,-0.076 -0.0374,-0.164 0.01565,-0.088 0.09165,-0.14105 l 2.338882,-1.63256 q 0.07946,-0.0555 0.163999,-0.0374 0.08799,0.0157 0.141046,0.0917 l 0.482292,0.69095 q 0.178448,0.25565 0.204306,0.53561 0.02827,0.28341 -0.0984,0.53624 -0.124254,0.25628 -0.383362,0.43714 -0.252198,0.17604 -0.528699,0.19948 -0.274089,0.0269 -0.526918,-0.0998 -0.250417,-0.12321 -0.428866,-0.37886 l -0.356896,-0.51131 -0.756596,0.52811 q -0.07601,0.053 -0.163998,0.0374 -0.08558,-0.0122 -0.141046,-0.0916 z m 1.750195,-0.19405 q 0.163979,0.23492 0.418639,0.28324 0.258114,0.0459 0.493039,-0.11808 0.245289,-0.17121 0.298104,-0.43415 0.05281,-0.26293 -0.111164,-0.49786 l -0.356897,-0.51131 -1.098618,0.76685 z"
         style="font-style:normal;font-variant:normal;font-weight:bold;font-stretch:normal;font-size:4.21314812px;font-family:Comfortaa;-inkscape-font-specification:'Comfortaa, Bold';font-variant-ligatures:normal;font-variant-caps:normal;font-variant-numeric:normal;font-feature-settings:normal;text-align:center;writing-mode:lr-tb;text-anchor:middle;fill:#33332f;fill-opacity:1;stroke:#33332f;stroke-width:0.13229166;stroke-miterlimit:4;stroke-dasharray:none;stroke-opacity:1"
         id="path7473" />
      <path
         d="m 23.319077,279.3012 q -0.46009,-0.16483 -0.748555,-0.49642 -0.284498,-0.33017 -0.353506,-0.76215 -0.06759,-0.43595 0.09724,-0.89604 0.16483,-0.46009 0.492452,-0.74997 0.327621,-0.28989 0.757056,-0.36428 0.433402,-0.073 0.893492,0.0919 0.456125,0.16341 0.740623,0.49358 0.288464,0.33159 0.357473,0.76357 0.07297,0.4334 -0.09186,0.89349 -0.164831,0.46009 -0.497839,0.75252 -0.327622,0.28989 -0.757057,0.36428 -0.429435,0.0744 -0.889526,-0.0904 z m 0.13357,-0.37283 q 0.337135,0.12078 0.663681,0.0588 0.327967,-0.066 0.578153,-0.28964 0.250186,-0.22364 0.372388,-0.56475 0.122202,-0.3411 0.07095,-0.67273 -0.05125,-0.33164 -0.264123,-0.58692 -0.208903,-0.25385 -0.550005,-0.37605 -0.341102,-0.12221 -0.667648,-0.0602 -0.32258,0.0634 -0.572766,0.28709 -0.250186,0.22365 -0.372387,0.56475 -0.122202,0.3411 -0.07095,0.67274 0.05125,0.33164 0.262702,0.59088 0.21287,0.25527 0.550006,0.37606 z"
         style="font-style:normal;font-variant:normal;font-weight:bold;font-stretch:normal;font-size:4.21314812px;font-family:Comfortaa;-inkscape-font-specification:'Comfortaa, Bold';font-variant-ligatures:normal;font-variant-caps:normal;font-variant-numeric:normal;font-feature-settings:normal;text-align:center;writing-mode:lr-tb;text-anchor:middle;fill:#33332f;fill-opacity:1;stroke:#33332f;stroke-width:0.13229166;stroke-miterlimit:4;stroke-dasharray:none;stroke-opacity:1"
         id="path7475" />
      <path
         d="m 28.312673,279.6451 q -0.08913,0.0254 -0.167243,-0.018 -0.07406,-0.0446 -0.09949,-0.13373 l -0.782538,-2.74285 q -0.02543,-0.0891 0.018,-0.16724 0.04343,-0.0781 0.128515,-0.10239 0.08913,-0.0254 0.167243,0.018 0.07811,0.0434 0.10354,0.13256 l 0.722432,2.53218 1.466638,-0.41843 q 0.08913,-0.0254 0.167243,0.018 0.07811,0.0434 0.10354,0.13257 0.02543,0.0891 -0.018,0.16724 -0.04343,0.0781 -0.132567,0.10354 z"
         style="font-style:normal;font-variant:normal;font-weight:bold;font-stretch:normal;font-size:4.21314812px;font-family:Comfortaa;-inkscape-font-specification:'Comfortaa, Bold';font-variant-ligatures:normal;font-variant-caps:normal;font-variant-numeric:normal;font-feature-settings:normal;text-align:center;writing-mode:lr-tb;text-anchor:middle;fill:#33332f;fill-opacity:1;stroke:#33332f;stroke-width:0.13229166;stroke-miterlimit:4;stroke-dasharray:none;stroke-opacity:1"
         id="path7477" />
      <path
         d="m 32.86167,277.27502 q -0.05889,0.066 -0.150923,0.0743 -0.08923,0.005 -0.158404,-0.0566 l -2.128707,-1.89848 q -0.06917,-0.0617 -0.07428,-0.15093 -0.0023,-0.0924 0.05659,-0.1584 0.06169,-0.0692 0.150922,-0.0743 0.08923,-0.005 0.158404,0.0566 l 0.943297,0.84127 -0.112563,-1.96898 q -0.0041,-0.0714 0.0086,-0.1109 0.01232,-0.0455 0.04597,-0.0832 0.05889,-0.066 0.130613,-0.0642 0.07138,-0.004 0.12798,0.0464 0.08175,0.0729 0.08821,0.18593 l 0.08986,1.5197 1.842197,0.17518 q 0.07206,0.008 0.128661,0.0583 0.06289,0.0561 0.07674,0.14183 0.01071,0.0829 -0.04538,0.14583 -0.07852,0.088 -0.189758,0.0735 l -1.787979,-0.16635 0.02449,0.4283 0.757782,0.67583 q 0.06918,0.0617 0.07428,0.15092 0.0051,0.0892 -0.05659,0.1584 z"
         style="font-style:normal;font-variant:normal;font-weight:bold;font-stretch:normal;font-size:4.21314812px;font-family:Comfortaa;-inkscape-font-specification:'Comfortaa, Bold';font-variant-ligatures:normal;font-variant-caps:normal;font-variant-numeric:normal;font-feature-settings:normal;text-align:center;writing-mode:lr-tb;text-anchor:middle;fill:#33332f;fill-opacity:1;stroke:#33332f;stroke-width:0.13229166;stroke-miterlimit:4;stroke-dasharray:none;stroke-opacity:1"
         id="path7479" />
      <path
         d="m 35.724994,271.61407 q -0.04655,0.39753 -0.229758,0.69422 -0.186903,0.29202 -0.471109,0.4369 -0.283717,0.1407 -0.622666,0.10101 l -1.954189,-0.22882 q -0.09624,-0.0113 -0.147479,-0.0809 -0.05542,-0.0701 -0.04464,-0.16218 0.01127,-0.0962 0.0809,-0.14748 0.06593,-0.0559 0.162179,-0.0446 l 1.954188,0.22882 q 0.221782,0.026 0.411253,-0.0706 0.189961,-0.10077 0.31489,-0.29824 0.121234,-0.20214 0.153083,-0.47414 0.03038,-0.25944 -0.04186,-0.47576 -0.07642,-0.2168 -0.238942,-0.35036 -0.162031,-0.13775 -0.383813,-0.16372 l -1.954189,-0.22882 q -0.09625,-0.0113 -0.147479,-0.0809 -0.05542,-0.0701 -0.04464,-0.16218 0.01078,-0.0921 0.08041,-0.14329 0.06593,-0.0559 0.162179,-0.0446 l 1.954189,0.22882 q 0.334764,0.0392 0.582487,0.24213 0.244027,0.19825 0.358902,0.52136 0.111181,0.31844 0.0661,0.70342 z"
         style="font-style:normal;font-variant:normal;font-weight:bold;font-stretch:normal;font-size:4.21314812px;font-family:Comfortaa;-inkscape-font-specification:'Comfortaa, Bold';font-variant-ligatures:normal;font-variant-caps:normal;font-variant-numeric:normal;font-feature-settings:normal;text-align:center;writing-mode:lr-tb;text-anchor:middle;fill:#33332f;fill-opacity:1;stroke:#33332f;stroke-width:0.13229166;stroke-miterlimit:4;stroke-dasharray:none;stroke-opacity:1"
         id="path7481" />
    </g>
    <text
       xml:space="preserve"
       style="font-style:normal;font-variant:normal;font-weight:bold;font-stretch:normal;font-size:4.21314812px;line-height:1.25;font-family:Comfortaa;-inkscape-font-specification:'Comfortaa, Bold';font-variant-ligatures:normal;font-variant-caps:normal;font-variant-numeric:normal;font-feature-settings:normal;text-align:center;letter-spacing:0px;word-spacing:0px;writing-mode:lr-tb;text-anchor:middle;fill:#33332f;fill-opacity:1;stroke:#33332f;stroke-width:0.13229166;stroke-miterlimit:4;stroke-dasharray:none;stroke-opacity:1"
       x="26.447968"
       y="272.29022"
       id="text6440-9-6-0"
       transform="scale(1.0003819,0.99961825)"><tspan
         sodipodi:role="line"
         x="26.447968"
         y="272.29022"
         style="font-style:normal;font-variant:normal;font-weight:bold;font-stretch:normal;font-size:4.21314812px;font-family:Comfortaa;-inkscape-font-specification:'Comfortaa, Bold';font-variant-ligatures:normal;font-variant-caps:normal;font-variant-numeric:normal;font-feature-settings:normal;text-align:center;writing-mode:lr-tb;text-anchor:middle;fill:#33332f;fill-opacity:1;stroke:#33332f;stroke-width:0.13229166;stroke-miterlimit:4;stroke-dasharray:none;stroke-opacity:1"
         id="tspan6442-6-6-9">O</tspan></text>
  </g>
</svg>
