<?xml version="1.0" encoding="UTF-8" standalone="no"?>
<svg
        xmlns:dc="http://purl.org/dc/elements/1.1/"
        xmlns:cc="http://creativecommons.org/ns#"
        xmlns:rdf="http://www.w3.org/1999/02/22-rdf-syntax-ns#"
        xmlns:svg="http://www.w3.org/2000/svg"
        xmlns="http://www.w3.org/2000/svg"
        version="1.1"
        id="svg2"
        viewBox="0 0 64.000001 64.000001"
        height="64"
        width="64">
  <defs
     id="defs4" />
  <metadata
     id="metadata7">
    <rdf:RDF>
      <cc:Work
         rdf:about="">
        <dc:format>image/svg+xml</dc:format>
        <dc:type
           rdf:resource="http://purl.org/dc/dcmitype/StillImage" />
        <dc:title></dc:title>
      </cc:Work>
    </rdf:RDF>
  </metadata>
    <path
            style="fill:#aa0000;fill-rule:evenodd;stroke:#d35f5f;stroke-width:1.20000005;stroke-linecap:round;stroke-linejoin:miter;stroke-miterlimit:4;stroke-dasharray:none;stroke-opacity:1"
            d="m 4.54725,22.000105 55,20"
            id="path4149"/>
    <path
            style="fill:#c83737;fill-rule:evenodd;stroke:#d35f5f;stroke-width:1.20000005;stroke-linecap:round;stroke-linejoin:miter;stroke-miterlimit:4;stroke-dasharray:none;stroke-opacity:1"
            d="m 4.54725,42.000105 55,-20"
            id="path4151"/>
    <g
            transform="translate(-340,-55.3621)"
            style="font-style:normal;font-variant:normal;font-weight:normal;font-stretch:normal;font-size:15px;line-height:125%;font-family:'DejaVu Serif';-inkscape-font-specification:'DejaVu Serif, Normal';text-align:start;letter-spacing:0px;word-spacing:0px;writing-mode:lr-tb;text-anchor:start;fill:#aa0000;fill-opacity:1;stroke:none;stroke-width:1px;stroke-linecap:butt;stroke-linejoin:miter;stroke-opacity:1"
            id="text4153">
        <path
                d="m 349.35074,90.742332 q 1.08398,0 1.6333,-0.856933 0.55664,-0.856934 0.55664,-2.526856 0,-1.669921 -0.55664,-2.519531 -0.54932,-0.856933 -1.6333,-0.856933 -1.08399,0 -1.64063,0.856933 -0.54931,0.84961 -0.54931,2.519531 0,1.669922 0.55664,2.526856 0.55664,0.856933 1.6333,0.856933 z m 0,0.725098 q -1.69922,0 -2.73194,-1.120605 -1.03271,-1.12793 -1.03271,-2.988282 0,-1.860351 1.02539,-2.980957 1.03272,-1.120605 2.73926,-1.120605 1.70654,0 2.73193,1.120605 1.03272,1.120606 1.03272,2.980957 0,1.860352 -1.03272,2.988282 -1.02539,1.120605 -2.73193,1.120605 z"
                id="path4868"/>
    </g>
    <g
            transform="translate(-340,-55.3621)"
            style="font-style:normal;font-variant:normal;font-weight:normal;font-stretch:normal;font-size:15px;line-height:125%;font-family:'DejaVu Serif';-inkscape-font-specification:'DejaVu Serif, Normal';text-align:start;letter-spacing:0px;word-spacing:0px;writing-mode:lr-tb;text-anchor:start;fill:#aa0000;fill-opacity:1;stroke:none;stroke-width:1px;stroke-linecap:butt;stroke-linejoin:miter;stroke-opacity:1"
            id="text4153-8">
        <path
                d="m 390.6813,90.822899 0,-1.816406 0.77637,0 q 0.0293,0.871582 0.54199,1.303711 0.52002,0.432128 1.53077,0.432128 0.9082,0 1.38427,-0.336914 0.47608,-0.344238 0.47608,-0.996093 0,-0.512696 -0.35156,-0.827637 -0.34424,-0.314941 -1.46485,-0.673828 l -0.97412,-0.32959 q -1.00342,-0.322266 -1.45752,-0.805664 -0.44678,-0.483399 -0.44678,-1.230469 0,-1.069336 0.78369,-1.677246 0.7837,-0.60791 2.16797,-0.60791 0.61524,0 1.29639,0.161133 0.68115,0.161133 1.40625,0.46875 l 0,1.699218 -0.77637,0 q -0.0293,-0.754394 -0.52734,-1.179199 -0.49805,-0.424804 -1.35498,-0.424804 -0.84961,0 -1.28906,0.300293 -0.43213,0.300292 -0.43213,0.900878 0,0.490723 0.32959,0.791016 0.32959,0.292969 1.31836,0.600586 l 1.06933,0.32959 q 1.10596,0.344238 1.58936,0.864258 0.49072,0.512695 0.49072,1.325683 0,1.105957 -0.84961,1.743164 -0.84228,0.629883 -2.3291,0.629883 -0.75439,0 -1.47217,-0.161133 -0.71777,-0.161133 -1.43555,-0.483398 z"
                style="fill:#aa0000;fill-opacity:1"
                id="path4871"/>
    </g>
    <g
            transform="translate(-340,-55.3621)"
            style="font-style:normal;font-variant:normal;font-weight:normal;font-stretch:normal;font-size:22.5px;line-height:125%;font-family:'DejaVu Serif';-inkscape-font-specification:'DejaVu Serif, Normal';text-align:start;letter-spacing:0px;word-spacing:0px;writing-mode:lr-tb;text-anchor:start;fill:#aa0000;fill-opacity:1;stroke:none;stroke-width:1px;stroke-linecap:butt;stroke-linejoin:miter;stroke-opacity:1"
            id="text4153-81">
        <path
                d="m 363.47791,76.780106 0,-1.164551 2.0874,0 0,-14.0625 -2.0874,0 0,-1.175537 6.40502,0 0,1.175537 -2.0874,0 0,5.668945 8.50342,0 0,-5.668945 -2.0874,0 0,-1.175537 6.40503,0 0,1.175537 -2.08741,0 0,14.0625 2.08741,0 0,1.164551 -6.40503,0 0,-1.164551 2.0874,0 0,-7.053223 -8.50342,0 0,7.053223 2.0874,0 0,1.164551 -6.40502,0 z"
                id="path4865"/>
    </g>
    <g
            transform="translate(-340,-55.3621)"
            style="font-style:normal;font-variant:normal;font-weight:normal;font-stretch:normal;font-size:22.5px;line-height:125%;font-family:'DejaVu Serif';-inkscape-font-specification:'DejaVu Serif, Normal';text-align:start;letter-spacing:0px;word-spacing:0px;writing-mode:lr-tb;text-anchor:start;fill:#aa0000;fill-opacity:1;stroke:none;stroke-width:1px;stroke-linecap:butt;stroke-linejoin:miter;stroke-opacity:1"
            id="text4153-81-3">
        <path
                d="m 369.40503,112.79234 3.28491,0 q 1.97754,0 2.88941,-0.85694 0.91186,-0.85693 0.91186,-2.72461 0,-1.85669 -0.91186,-2.70263 -0.90088,-0.85694 -2.88941,-0.85694 l -3.28491,0 0,7.14112 z m 0,-8.30567 2.79053,0 q 1.80175,0 2.62573,-0.69214 0.83496,-0.69214 0.83496,-2.18628 0,-1.50512 -0.83496,-2.186276 -0.82398,-0.692138 -2.62573,-0.692138 l -2.79053,0 0,5.756834 z m -4.31763,9.47022 0,-1.16455 2.0874,0 0,-14.062504 -2.0874,0 0,-1.175538 8.09693,0 q 2.48291,0 3.73535,1.021729 1.26343,1.010742 1.26343,3.032223 0,1.46119 -0.87891,2.32911 -0.86792,0.86791 -2.54883,1.06567 2.0874,0.26367 3.16406,1.34033 1.08765,1.06567 1.08765,2.86743 0,2.43897 -1.53809,3.59253 -1.53808,1.15357 -4.80102,1.15357 l -7.58057,0 z"
                id="path4874"/>
  </g>
</svg>
